<svg version="1.0" xmlns="http://www.w3.org/2000/svg" width="832px" height="800px" viewBox="0 0 5200 5000">
<!-- schema by "Zino#4979" opti by "!mr LaFete 12volts uniquement#5560" -->
<g fill="#ccc" stroke="none">
<path d="M1475 4619 c-32 -18 -45 -41 -45 -80 0 -54 31 -89 80 -89 47 0 80 35
80 86 0 60 -68 109 -115 83z m64 -43 c17 -20 10 -77 -11 -90 -37 -23 -68 23
-54 80 7 28 46 33 65 10z"/>
<path d="M1335 4510 l-16 -31 -30 18 c-26 16 -31 16 -39 3 -15 -24 -12 -38 13
-51 12 -6 23 -13 25 -14 2 -2 -4 -17 -12 -34 -15 -28 -15 -31 3 -41 11 -5 26
-8 33 -5 14 6 12 17 99 -570 35 -237 75 -502 123 -825 19 -129 49 -329 66
-445 43 -296 85 -577 120 -810 16 -110 39 -263 50 -340 63 -431 91 -613 96
-643 5 -26 3 -31 -9 -27 -8 4 -17 0 -20 -8 -6 -17 -43 -25 -147 -32 -41 -3
-97 -8 -123 -11 -64 -8 -441 -8 -537 0 -41 4 -111 11 -155 16 -44 6 -98 12
-120 15 -46 5 -200 32 -224 39 -9 3 -27 7 -41 10 -63 11 -398 107 -466 133
-10 4 -12 0 -8 -11 8 -20 199 -81 394 -125 52 -12 111 -26 130 -31 19 -5 51
-12 70 -15 19 -3 42 -8 50 -10 35 -10 264 -36 370 -43 147 -9 447 -9 571 0
l95 7 44 -107 c58 -143 75 -198 55 -182 -8 6 -22 31 -31 56 -9 24 -23 44 -30
44 -18 0 -18 2 10 -61 13 -30 35 -65 49 -77 24 -23 24 -25 9 -52 -15 -25 -15
-30 1 -54 28 -41 97 -27 97 21 0 8 6 13 13 10 6 -2 11 -13 9 -25 -4 -25 16
-39 24 -17 4 10 13 13 24 10 10 -3 22 0 26 7 4 6 2 14 -4 16 -14 4 38 45 168
132 52 35 97 66 100 69 3 3 32 24 65 47 151 103 230 158 235 164 3 3 48 35
100 70 52 36 97 67 100 71 3 3 39 29 80 57 41 28 111 76 155 107 44 31 114 79
155 107 41 28 77 55 78 60 2 4 9 8 16 8 7 0 21 8 32 18 10 9 48 37 84 61 36
24 67 47 70 51 3 4 20 15 38 24 25 13 32 14 32 3 0 -27 26 -50 49 -42 22 7 22
13 4 63 -3 7 8 17 26 23 24 9 30 16 26 29 -4 12 2 24 17 35 58 43 273 193 368
257 58 39 107 74 110 78 3 4 34 26 70 50 36 24 67 46 70 50 3 4 32 25 65 46
77 52 205 140 381 265 100 71 239 167 429 299 83 57 153 109 157 115 13 19
-14 18 -40 -2 -15 -11 -83 -59 -152 -107 -69 -48 -136 -96 -150 -106 -14 -10
-95 -67 -180 -126 -85 -59 -195 -136 -245 -171 -224 -158 -358 -251 -532 -372
l-78 -54 115 114 c221 220 383 417 535 652 211 325 388 716 480 1057 9 36 21
76 26 90 65 190 150 930 109 955 -6 4 -10 -26 -11 -82 -2 -280 -58 -666 -134
-923 -47 -162 -63 -209 -107 -330 -197 -530 -509 -1006 -924 -1410 -177 -172
-445 -388 -457 -369 -2 2 -8 17 -15 32 -8 19 -18 27 -27 23 -18 -6 66 -124
-1114 1561 l-981 1403 21 21 c22 22 22 22 3 36 -10 8 -25 18 -33 22 -11 7 -10
13 5 36 17 27 17 28 -1 41 -27 20 -32 18 -50 -16z m1023 -1557 c551 -788 1005
-1438 1008 -1446 3 -9 -23 -35 -73 -72 -43 -32 -82 -61 -87 -66 -4 -4 19 -43
53 -88 l61 -80 -83 -49 c-133 -78 -520 -262 -552 -262 -4 0 -21 -6 -38 -14
-91 -41 -419 -132 -617 -171 -47 -9 -93 -19 -104 -22 -12 -3 -16 -1 -11 7 4 7
-1 13 -14 17 -15 4 -21 13 -21 33 0 15 -16 130 -35 256 -36 240 -49 325 -115
774 -22 151 -56 379 -75 505 -19 127 -49 325 -66 440 -17 116 -46 314 -65 440
-59 395 -153 1030 -159 1075 -13 92 -17 118 -22 145 -3 19 -2 26 4 20 5 -5
460 -654 1011 -1442z m1066 -1525 c50 -77 53 -94 19 -111 -17 -9 -28 -23 -28
-36 0 -14 -14 -30 -41 -46 l-40 -24 -53 70 c-29 39 -51 75 -49 80 4 11 139
117 150 118 4 1 23 -23 42 -51z m-304 -372 c0 -2 -30 -23 -66 -47 -37 -24 -72
-48 -78 -54 -6 -6 -47 -35 -91 -65 -44 -29 -82 -56 -85 -59 -3 -3 -32 -24 -65
-47 -33 -22 -106 -73 -162 -112 -57 -40 -147 -103 -200 -140 -54 -37 -120 -84
-148 -103 -222 -157 -275 -185 -275 -146 0 6 -11 84 -25 174 l-26 163 26 24
c19 17 44 27 83 31 117 14 473 108 587 155 11 4 43 16 70 25 28 10 68 25 90
35 125 54 160 70 255 117 117 58 110 54 110 49z m-1309 -446 c11 -39 10 -106
-2 -137 l-10 -27 -20 44 c-12 25 -29 66 -39 92 -16 43 -16 47 -1 52 37 10 65
1 72 -24z m39 20 c0 -5 7 -10 15 -10 8 0 15 -1 15 -2 1 -2 3 -21 6 -43 4 -22
16 -104 28 -181 17 -110 19 -141 9 -137 -7 3 -13 -1 -13 -8 0 -8 -8 -4 -20 9
-12 12 -25 22 -31 22 -6 0 -10 25 -9 63 3 82 -8 275 -15 287 -4 6 -1 10 4 10
6 0 11 -4 11 -10z m-21 -227 c-1 -33 -2 -35 -8 -13 -4 14 -6 31 -3 38 8 22 12
13 11 -25z m46 -178 c0 -22 -31 -33 -47 -17 -17 17 -1 44 24 40 15 -2 23 -10
23 -23z"/>
<path d="M1961 899 c-35 -14 -50 -39 -51 -82 0 -53 35 -87 90 -87 29 0 40 4
40 15 0 10 -10 15 -33 15 -41 0 -57 15 -57 55 0 40 16 55 57 55 38 0 46 24 11
34 -28 7 -27 7 -57 -5z"/>
<path d="M2530 2956 c0 -92 1 -94 25 -100 27 -7 73 1 93 17 15 12 16 59 1 74
-7 7 -8 17 -1 29 5 11 12 32 16 47 6 25 4 28 -15 25 -14 -2 -25 -14 -33 -38
-6 -19 -19 -36 -28 -38 -15 -3 -18 4 -18 37 0 34 -3 41 -20 41 -19 0 -20 -7
-20 -94z m85 -41 c0 -13 -8 -21 -22 -23 -19 -3 -23 1 -23 23 0 22 4 26 23 23
14 -2 22 -10 22 -23z"/>
<path d="M1440 2486 l-75 -11 3 -40 c6 -74 51 -108 92 -70 13 12 27 13 63 6
45 -8 47 -7 47 15 0 19 -6 23 -37 26 -53 4 -58 34 -9 44 26 4 36 11 36 25 0
22 -7 22 -120 5z m14 -55 c3 -4 -1 -16 -8 -27 -12 -15 -16 -16 -30 -5 -24 20
-20 41 8 41 14 0 27 -4 30 -9z"/>
<path d="M1496 2343 c-3 -3 -6 -19 -6 -34 0 -23 -5 -28 -27 -31 -41 -5 -41
-28 1 -28 30 0 35 -3 38 -27 5 -41 28 -41 28 1 0 30 3 35 27 38 42 5 41 28 -1
28 -31 0 -36 3 -36 24 0 26 -12 40 -24 29z"/>
<path d="M1535 2175 c-5 -2 -36 -6 -67 -10 -50 -6 -58 -9 -58 -27 0 -18 5 -20
40 -15 37 5 40 3 40 -18 0 -13 3 -30 6 -39 5 -13 -1 -16 -28 -16 -41 0 -47 -5
-41 -29 4 -16 10 -17 91 -4 48 7 90 13 95 13 4 0 7 10 7 21 0 19 -4 21 -44 15
l-44 -7 -4 36 c-4 34 -3 36 34 41 28 5 38 11 38 25 0 14 -7 19 -27 18 -16 0
-32 -2 -38 -4z"/>
<path d="M3470 1641 c0 -4 14 -52 31 -105 28 -90 32 -96 57 -96 26 0 30 6 60
98 18 54 32 101 32 105 0 4 -11 7 -24 7 -19 0 -26 -7 -31 -30 -6 -25 -11 -30
-36 -30 -24 0 -32 6 -40 30 -7 19 -18 30 -30 30 -10 0 -19 -4 -19 -9z m104
-103 c-3 -13 -10 -30 -15 -38 -7 -13 -8 -13 -9 0 0 8 -3 25 -6 38 -5 18 -2 22
16 22 18 0 20 -4 14 -22z"/>
<path d="M2108 283 c-16 -4 -18 -18 -18 -107 l0 -103 29 -6 c45 -9 100 10 107
38 3 13 1 31 -4 42 -7 13 -6 24 4 38 21 28 17 63 -8 79 -26 16 -84 27 -110 19z
m77 -63 c0 -20 -6 -26 -27 -28 -25 -3 -28 0 -28 28 0 28 3 31 28 28 21 -2 27
-8 27 -28z m-1 -79 c11 -18 -6 -41 -30 -41 -19 0 -24 5 -24 25 0 20 5 25 24
25 14 0 27 -4 30 -9z"/>
</g>
</svg>
